# File created by Blade
# Date/Time:  Wed Apr 08 16:20:06 2015
#---------------------------------------------------------
:version 1.10
:name HOM
:units
  mass 1.0
  length 1.000000
  angle deg
:documentation
     Acclaim Skeleton File
:root
   axis xyz
   order TX TY TZ RX RY RZ
   position 0.000000 0.000000 0.000000
   orientation 0 0 0
:bonedata
   begin
      id 1
      name Spine_dum
      direction 0.000000 1.000000 0.000000
      length 4.885285
      axis 0.0 0.0 0.0 xyz
   end
   begin
      id 2
      name LeftUpLeg_dum
      direction 1.000000 0.000000 0.000000
      length 2.672193
      axis 0.0 0.0 0.0 xyz
   end
   begin
      id 3
      name RightUpLeg_dum
      direction -1.000000 0.000000 0.000000
      length 2.672193
      axis 0.0 0.0 0.0 xyz
   end
   begin
      id 4
      name Spine
      direction 0.000000 1.000000 0.000000
      length 0.000000
      axis 0.0 0.0 0.0 xyz
      dof rx ry rz
   end
   begin
      id 5
      name Spine_dum1
      direction 0.000000 1.000000 0.000000
      length 16.494159
      axis 0.0 0.0 0.0 xyz
   end
   begin
      id 6
      name Spine_dum2
      direction 0.000000 1.000000 0.000000
      length 10.663448
      axis 0.0 0.0 0.0 xyz
   end
   begin
      id 7
      name Spine_dum3
      direction 0.000000 1.000000 0.000000
      length 10.663448
      axis 0.0 0.0 0.0 xyz
   end
   begin
      id 8
      name Head
      direction 0.000000 1.000000 0.000000
      length 4.527550
      axis 0.0 0.0 0.0 xyz
      dof rx ry rz
   end
   begin
      id 9
      name LeftShoulder
      direction 1.000000 0.000000 0.000000
      length 7.531907
      axis 0.0 0.0 -90.0 xyz
      dof rx ry rz
   end
   begin
      id 10
      name LeftArm
      direction 1.000000 0.000000 0.000000
      length 10.229199
      axis 0.0 0.0 -90.0 xyz
      dof rx ry rz
   end
   begin
      id 11
      name LeftForeArm
      direction 1.000000 0.000000 0.000000
      length 8.673495
      axis 0.0 0.0 -90.0 xyz
      dof ry rz rx
   end
   begin
      id 12
      name LeftHand
      direction 0.000000 0.000000 0.000000
      length 0.000000
      axis 0.0 0.0 -90.0 xyz
      dof rx ry rz
   end
   begin
      id 13
      name LeftHand_dum1
      direction 0.000000 0.000000 0.000000
      length 0.000000
      axis 0.0 0.0 -90.0 xyz
   end
   begin
      id 14
      name LeftHand_dum2
      direction 1.000000 0.000000 0.000000
      length 3.937000
      axis 0.0 0.0 -90.0 xyz
   end
   begin
      id 15
      name LeftHandThumb1
      direction 0.000000 0.000000 1.000000
      length 3.937000
      axis 0.0 0.0 -90.0 xyz
      dof rx rz ry
   end
   begin
      id 16
      name RightShoulder
      direction -1.000000 0.000000 0.000000
      length 7.531907
      axis 0.0 0.0 90.0 xyz
      dof rx ry rz
   end
   begin
      id 17
      name RightArm
      direction -1.000000 0.000000 0.000000
      length 10.229199
      axis 0.0 0.0 90.0 xyz
      dof rx ry rz
   end
   begin
      id 18
      name RightForeArm
      direction -1.000000 0.000000 0.000000
      length 8.673495
      axis 0.0 0.0 90.0 xyz
      dof ry rz rx
   end
   begin
      id 19
      name RightHand
      direction 0.000000 0.000000 0.000000
      length 0.000000
      axis 0.0 0.0 90.0 xyz
      dof rx ry rz
   end
   begin
      id 20
      name RightHand_dum1
      direction 0.000000 0.000000 0.000000
      length 0.000000
      axis 0.0 0.0 90.0 xyz
   end
   begin
      id 21
      name RightHand_dum2
      direction -1.000000 0.000000 0.000000
      length 3.937000
      axis 0.0 0.0 90.0 xyz
   end
   begin
      id 22
      name RightHandThumb1
      direction 0.000000 0.000000 1.000000
      length 3.937000
      axis 0.0 0.0 90.0 xyz
      dof rx rz ry
   end
   begin
      id 23
      name LeftUpLeg
      direction 0.000000 -1.000000 0.000000
      length 16.263388
      axis 0.0 0.0 0.0 xyz
      dof rx ry rz
   end
   begin
      id 24
      name LeftLeg
      direction 0.000000 -1.000000 0.000000
      length 14.328163
      axis 0.0 0.0 0.0 xyz
      dof rx ry rz
   end
   begin
      id 25
      name LeftFoot
      direction 0.000000 -0.258819 0.965926
      length 5.031290
      axis 15.0 0.0 0.0 xyz
      dof rx ry rz
   end
   begin
      id 26
      name LeftToeBase
      direction 0.000000 0.000000 1.000000
      length 2.952750
      axis 0.0 0.0 0.0 xyz
      dof rx ry rz
   end
   begin
      id 27
      name RightUpLeg
      direction 0.000000 -1.000000 0.000000
      length 16.263388
      axis 0.0 0.0 0.0 xyz
      dof rx ry rz
   end
   begin
      id 28
      name RightLeg
      direction 0.000000 -1.000000 0.000000
      length 14.328163
      axis 0.0 0.0 0.0 xyz
      dof rx ry rz
   end
   begin
      id 29
      name RightFoot
      direction 0.000000 -0.258819 0.965926
      length 5.031290
      axis 15.0 0.0 0.0 xyz
      dof rx ry rz
   end
   begin
      id 30
      name RightToeBase
      direction 0.000000 0.000000 1.000000
      length 2.952750
      axis 0.0 0.0 0.0 xyz
      dof rx ry rz
   end
:hierarchy
   begin
      root Spine_dum LeftUpLeg_dum RightUpLeg_dum
      Spine_dum Spine
      LeftUpLeg_dum LeftUpLeg
      RightUpLeg_dum RightUpLeg
      Spine Spine_dum1 Spine_dum2 Spine_dum3
      Spine_dum1 Head
      Spine_dum2 LeftShoulder
      Spine_dum3 RightShoulder
      LeftShoulder LeftArm
      LeftArm LeftForeArm
      LeftForeArm LeftHand
      LeftHand LeftHand_dum1 LeftHand_dum2
      LeftHand_dum1 LeftHandThumb1
      RightShoulder RightArm
      RightArm RightForeArm
      RightForeArm RightHand
      RightHand RightHand_dum1 RightHand_dum2
      RightHand_dum1 RightHandThumb1
      LeftUpLeg LeftLeg
      LeftLeg LeftFoot
      LeftFoot LeftToeBase
      RightUpLeg RightLeg
      RightLeg RightFoot
      RightFoot RightToeBase
   end

# File created by Blade
# Date/Time:  Wed Apr 08 16:19:59 2015
# Frame Rate: 120.000 fps
#------------------------------------------------------
:FULLY-SPECIFIED
:DEGREES
567
root -22.500495 5.731873 -0.133229 225.991047 -79.664901 -307.158312
Spine 79.955447 8.937292 -9.151071
Head 36.392060 -6.485699 0.424710
LeftShoulder -17.375477 63.994559 16.772389
LeftArm 44.855749 43.402980 -65.660839
LeftForeArm 2.934369 -0.000000 24.190647
LeftHand 0.707822 -0.000000 10.117582
LeftHandThumb1 -26.253704 0.000000 33.147579
RightShoulder -5.989158 -26.253264 -27.939041
RightArm -2.252016 -43.874023 94.959735
RightForeArm 30.502973 -0.000000 43.705274
RightHand -0.058859 -0.000000 -2.140804
RightHandThumb1 -24.326973 -0.000000 -32.862282
LeftUpLeg -52.123043 4.484303 6.792791
LeftLeg 134.194537 -0.000000 -0.000000
LeftFoot -14.100685 -9.461958 -12.850731
LeftToeBase -26.017835 -0.000000 0.000000
RightUpLeg -58.887280 4.758608 -12.768982
RightLeg 135.927516 -0.000000 -0.000000
RightFoot -9.124157 -6.134117 2.459670
RightToeBase -5.920030 -0.000000 0.000000
568
root -22.611527 5.712557 -0.128157 225.855225 -79.638986 -307.190896
Spine 79.876060 8.986506 -9.286401
Head 36.242237 -6.389467 0.572209
LeftShoulder -17.432246 64.118293 16.873259
LeftArm 44.685154 43.763839 -65.608239
LeftForeArm 2.801125 -0.000000 24.235583
LeftHand 0.622973 0.000000 10.199064
LeftHandThumb1 -26.253704 0.000000 33.147579
RightShoulder -6.035936 -26.450044 -28.061106
RightArm -2.363907 -44.139014 94.923996
RightForeArm 30.495305 0.000000 43.822723
RightHand -0.157848 -0.000000 -2.001882
RightHandThumb1 -24.326973 -0.000000 -32.862282
LeftUpLeg -52.041486 4.254508 6.796536
LeftLeg 134.625074 -0.000000 -0.000000
LeftFoot -14.502848 -9.396773 -12.764644
LeftToeBase -25.587295 -0.000000 0.000000
RightUpLeg -58.879609 4.986847 -12.806760
RightLeg 136.363431 -0.000000 -0.000000
RightFoot -9.352820 -6.208966 2.551979
RightToeBase -5.837090 -0.000000 0.000000
569
root -22.712080 5.688022 -0.126399 225.563957 -79.648249 -307.012491
Spine 79.785453 9.010394 -9.407379
Head 36.080187 -6.242540 0.689642
LeftShoulder -17.482957 64.292770 16.910837
LeftArm 44.569517 44.053597 -65.524661
LeftForeArm 2.629825 -0.000000 24.311492
LeftHand 0.655034 -0.000000 10.279616
LeftHandThumb1 -26.253704 0.000000 33.147579
RightShoulder -5.975184 -26.587108 -28.258622
RightArm -2.479465 -44.365418 94.959039
RightForeArm 30.480019 -0.000000 43.874617
RightHand -0.186277 0.000000 -1.870900
RightHandThumb1 -24.326973 -0.000000 -32.862282
LeftUpLeg -52.053391 4.062694 6.808109
LeftLeg 135.015809 -0.000000 -0.000000
LeftFoot -14.802710 -9.177006 -12.738607
LeftToeBase -25.230701 -0.000000 0.000000
RightUpLeg -58.935906 5.210346 -12.767588
RightLeg 136.756582 -0.000000 -0.000000
RightFoot -9.538666 -6.318914 2.669536
RightToeBase -5.746315 -0.000000 0.000000
570
root -22.806080 5.661807 -0.131287 225.058435 -79.662690 -306.569261
Spine 79.709483 9.094693 -9.461622
Head 35.855918 -6.141062 0.898637
LeftShoulder -17.493527 64.357907 16.987564
LeftArm 44.513525 44.408206 -65.336004
LeftForeArm 2.386756 -0.000000 24.314433
LeftHand 0.728296 -0.000000 10.520775
LeftHandThumb1 -26.253704 0.000000 33.147579
RightShoulder -5.947889 -26.686958 -28.374345
RightArm -2.625430 -44.561664 94.997225
RightForeArm 30.465891 0.000000 43.916039
RightHand -0.198907 -0.000000 -1.753306
RightHandThumb1 -24.326973 -0.000000 -32.862282
LeftUpLeg -52.102179 3.908202 6.897845
LeftLeg 135.388183 -0.000000 -0.000000
LeftFoot -15.140687 -8.971777 -12.643958
LeftToeBase -24.771977 -0.000000 0.000000
RightUpLeg -59.048790 5.458638 -12.669533
RightLeg 137.125865 -0.000000 -0.000000
RightFoot -9.713218 -6.422350 2.816837
RightToeBase -5.751876 -0.000000 0.000000
571
root -22.888041 5.638726 -0.138924 224.481837 -79.618447 -306.123249
Spine 79.781046 9.260671 -9.536083
Head 35.527028 -6.087788 1.140818
LeftShoulder -17.408070 64.349744 17.144326
LeftArm 44.423315 44.766300 -65.146821
LeftForeArm 2.126191 -0.000000 24.380541
LeftHand 0.586523 -0.000000 10.628806
LeftHandThumb1 -26.253704 0.000000 33.147579
RightShoulder -5.942746 -26.719004 -28.457980
RightArm -2.792106 -44.766514 95.044604
RightForeArm 30.454399 -0.000000 43.979889
RightHand -0.240124 -0.000000 -1.641494
RightHandThumb1 -24.326973 -0.000000 -32.862282
LeftUpLeg -52.060389 3.786792 6.959456
LeftLeg 135.713720 -0.000000 -0.000000
LeftFoot -15.462177 -8.709599 -12.457612
LeftToeBase -24.347623 -0.000000 0.000000
RightUpLeg -59.101572 5.763455 -12.589154
RightLeg 137.451009 -0.000000 -0.000000
RightFoot -9.841126 -6.540124 2.954483
RightToeBase -5.708210 -0.000000 0.000000
572
root -22.965295 5.606961 -0.152326 223.738586 -79.618547 -305.391063
Spine 79.783156 9.421584 -9.567827
Head 35.172470 -6.014682 1.421529
LeftShoulder -17.388708 64.350998 17.204944
LeftArm 44.386894 45.136864 -64.863848
LeftForeArm 1.736108 -0.000000 24.425372
LeftHand 0.801433 -0.000000 11.087335
LeftHandThumb1 -26.253704 0.000000 33.147579
RightShoulder -5.961410 -26.740487 -28.491873
RightArm -2.904792 -44.969767 95.012330
RightForeArm 30.461991 -0.000000 44.033515
RightHand -0.295853 -0.000000 -1.385143
RightHandThumb1 -24.326973 -0.000000 -32.862282
LeftUpLeg -52.164127 3.703506 7.088511
LeftLeg 136.032076 -0.000000 -0.000000
LeftFoot -15.836799 -8.405360 -12.358123
LeftToeBase -23.981144 -0.000000 0.000000
RightUpLeg -59.305064 6.057312 -12.422523
RightLeg 137.754276 -0.000000 -0.000000
RightFoot -9.907893 -6.668561 3.096004
RightToeBase -5.717061 -0.000000 0.000000
573
root -23.043295 5.571677 -0.167807 223.143898 -79.576566 -304.652609
Spine 79.664726 9.594915 -9.718129
Head 34.778316 -5.892659 1.719183
LeftShoulder -17.751642 64.331648 16.861213
LeftArm 44.446312 45.508944 -64.338249
LeftForeArm 1.338720 -0.000000 24.539570
LeftHand 0.929224 0.000000 11.566267
LeftHandThumb1 -26.253704 0.000000 33.147579
RightShoulder -5.929725 -26.651646 -28.435961
RightArm -3.158870 -45.060249 95.000770
RightForeArm 30.549389 -0.000000 44.137799
RightHand -0.491618 -0.000000 -0.783674
RightHandThumb1 -24.326973 -0.000000 -32.862282
LeftUpLeg -52.447556 3.691653 7.192717
LeftLeg 136.366848 -0.000000 -0.000000
LeftFoot -16.181457 -8.090071 -12.263240
LeftToeBase -23.383159 -0.000000 0.000000
RightUpLeg -59.711546 6.340635 -12.297012
RightLeg 138.073908 -0.000000 -0.000000
RightFoot -9.916853 -6.780662 3.247799
RightToeBase -5.638470 -0.000000 0.000000
